<?xml version="1.0" encoding="UTF-8"?>
<svg id="Ebene_1" data-name="Ebene 1" xmlns="http://www.w3.org/2000/svg" viewBox="0 0 97.54 54.63">
  <defs>
    <style>
      .cls-1 {
        fill: #fff;
        stroke-width: 0px;
      }
    </style>
  </defs>
  <path class="cls-1" d="M66.36,13.57V.77h7.6v1.48h-6.1v3.78h4.34v1.48h-4.34v6.07h-1.49Z"/>
  <path class="cls-1" d="M75.6,2.21V0h2.16v2.21h-2.16ZM75.92,13.57V4.09h1.49v9.49h-1.49Z"/>
  <path class="cls-1" d="M80.13,13.57V0h1.49v13.57h-1.49Z"/>
  <path class="cls-1" d="M84.35,13.57V4.09h1.49v.94l.45-.4,1.19-.68h1.66l1.46.43.68.94.79-.68,1.26-.68h1.66l1.46.43,1.1,1.48v7.72h-1.49v-7.15l-.45-.7-.92-.31h-1.15l-1.26.83-.58.85v6.48h-1.49v-7.07l-.45-.74-.92-.34h-1.15l-1.3.83-.54.77v6.55h-1.49Z"/>
  <path class="cls-1" d="M27.11,44.06h5.81v-5.26h1.49v12.8h-1.49v-6.07h-5.81v-1.48Z"/>
  <path class="cls-1" d="M39.82,51.75l-1.22-.38-.86-.5-1.01-1.46v-1.04l.25-1.22,1.33-1.33,1.78-.45h1.15l1.21.4.43.31v-1.37l-.2-.54-.76-.49-.88-.22h-1.28l-.77.25-.56.36-.34.34-1.03-1.06.5-.47.86-.56,1.15-.34h1.67l1.3.32,1.33.9.49,1.22v5.45l.7,1.01-1.21.86-.87-1.3-.41.47-1.66.83h-1.12ZM40.03,50.27h.58l1.35-.5.74-.77.18-.56v-.67l-.38-.4-.56-.29-.88-.25h-.81l-1.19.32-.7.7-.14.63v.49l.56.79.41.25.85.25Z"/>
  <path class="cls-1" d="M47.09,51.61v-9.49h1.49v.94l.45-.4,1.19-.68h1.66l1.46.43.68.94.79-.68,1.26-.68h1.66l1.46.43,1.1,1.48v7.72h-1.49v-7.15l-.45-.7-.92-.31h-1.15l-1.26.83-.58.85v6.48h-1.49v-7.07l-.45-.74-.92-.34h-1.15l-1.3.83-.54.77v6.55h-1.49Z"/>
  <path class="cls-1" d="M65.99,51.75l-1.08-.4-.5-.32v.58h-1.49v-13.57h1.49v5.04l.4-.41,1.1-.68h1.62l1.87.86,1.22,1.66.38,1.28v2.14l-.38,1.31-1.22,1.66-1.8.86h-1.6ZM66.2,50.29h1.15l1.06-.58.87-1.15.21-.85v-1.75l-.21-.81-.87-1.17-1.13-.54h-1.19l-1.17.83-.52.77v4.09l.38.47.68.45.74.23Z"/>
  <path class="cls-1" d="M75.89,51.75l-1.64-.43-1.17-1.51v-7.69h1.49v7.15l.52.76,1.03.27h1.03l1.28-.85.56-.77v-6.55h1.49v9.49h-1.48v-.95l-.47.41-1.19.68h-1.46Z"/>
  <path class="cls-1" d="M83.16,51.61v-9.49h1.49v1.1l.68-.67,1.22-.58h1.17l.9.25-.36,1.42-.72-.2h-.77l-.99.47-.74.83-.4.86v5.99h-1.49Z"/>
  <path class="cls-1" d="M92.81,54.63l-1.28-.34-.88-.58-.5-.49,1.04-1.06.45.45.45.31.86.23h1.28l.83-.31.77-.52.22-.54v-1.66l-.38.36-1.12.68h-1.62l-1.84-.72-1.26-1.66-.38-1.28v-1.71l.38-1.31,1.22-1.66,1.8-.86h1.6l1.08.4.5.32v-.58h1.49v9.83l-.45,1.31-1.37.92-1.33.45h-1.58ZM93.17,49.7h1.19l1.17-.83.52-.85v-3.44l-.38-.47-.68-.45-.74-.23h-1.15l-1.06.58-.86,1.15-.22.85v1.31l.22.77.83,1.13,1.17.47Z"/>
  <path class="cls-1" d="M4.29,13.75l-1.94-.85-1.21-1.22-.8-1.6-.34-1.55v-2.65l.34-1.58.8-1.6,1.25-1.21,1.9-.83h1.99l1.88.74.81.63.71.83-1.07,1.01-.63-.7-.56-.45-1.36-.58h-1.52l-1.28.58-.87.86-.62,1.21-.27,1.21v2.41l.27,1.21.62,1.19.85.86,1.3.61h1.52l1.38-.58.56-.45.62-.7,1.07,1.01-.71.83-.81.63-1.88.74h-1.99Z"/>
  <path class="cls-1" d="M11.87,13.61V.03h1.5v4.99l.43-.36,1.21-.68h1.66l1.52.43,1.1,1.48v7.72h-1.5v-7.15l-.45-.7-.98-.31h-1.16l-1.27.83-.58.85v6.48h-1.5Z"/>
  <path class="cls-1" d="M21.69,2.25V.03h2.17v2.21h-2.17ZM22.01,13.61V4.12h1.5v9.49h-1.5Z"/>
  <path class="cls-1" d="M26.43,13.61V4.12h1.5v.94l.45-.4,1.19-.68h1.66l1.61.43,1.1,1.48v7.72h-1.5v-7.15l-.45-.7-1.07-.31h-1.16l-1.3.83-.54.77v6.55h-1.5Z"/>
  <path class="cls-1" d="M39.65,13.75l-1.81-.86-1.23-1.66-.38-1.28v-2.14l.38-1.31,1.23-1.66,1.81-.86h1.61l1.83.86,1.21,1.66.42,1.21v1.89h-6.98v.18l.23.79.87,1.17,1.1.54h1.08l1.23-.31.94-.59.8,1.19-1.18.77-1.66.41h-1.5ZM37.74,8.12h5.48v-.23l-.23-.68-.87-1.17-1.1-.58h-1.12l-1.08.56-.85,1.15-.22.79v.16Z"/>
  <path class="cls-1" d="M49.17,13.75l-1.54-.4-.85-.67-.42-.47,1.05-1.01.34.41.49.38,1.12.29h1.21l.76-.22.45-.32.29-.45v-.68l-.31-.52-.54-.38-2.6-.52-1.16-.61-.76-1.04v-1.6l.6-1.03.81-.63,1.12-.31h1.54l1.48.4,1.09.74-.81,1.21-.87-.59-1.01-.31h-1.21l-.69.2-.31.25-.25.43v.79l.36.49.51.25,2.77.54,1.03.68.71,1.15v1.53l-.69,1.04-.87.61-1.23.36h-1.61Z"/>
  <path class="cls-1" d="M.71,32.61v-12.8h7.6v1.48H2.21v3.78h4.34v1.48H2.21v6.07H.71Z"/>
  <path class="cls-1" d="M11.82,32.75l-1.8-.86-1.22-1.66-.38-1.28v-2.14l.38-1.31,1.22-1.66,1.8-.86h1.6l1.82.86,1.21,1.66.41,1.21v1.89h-6.95v.18l.23.79.86,1.17,1.1.54h1.08l1.22-.31.94-.59.79,1.19-1.17.77-1.66.41h-1.49ZM9.91,27.12h5.45v-.23l-.23-.68-.86-1.17-1.1-.58h-1.12l-1.08.56-.85,1.15-.22.79v.16Z"/>
  <g>
    <path class="cls-1" d="M21.18,32.75l-1.53-.4-.85-.67-.41-.47,1.04-1.01.34.41.49.38,1.12.29h1.21l.76-.22.45-.32.29-.45v-.68l-.31-.52-.54-.38-2.59-.52-1.15-.61-.76-1.04v-1.6l.59-1.03.81-.63,1.12-.31h1.53l1.48.4,1.08.74-.81,1.21-.86-.59-1.01-.31h-1.21l-.68.2-.31.25-.25.43v.79l.36.49.5.25,2.75.54,1.03.68.7,1.15v1.53l-.68,1.04-.86.61-1.22.36h-1.6Z"/>
    <path class="cls-1" d="M30.86,32.75l-1.26-.47-.99-1.42v-6.03h-1.71v-1.48h1.71v-3.31h1.49v3.31h2.48v1.48h-2.48v5.54l.45.65.65.25h.5l1.28-.32.38,1.42-1.67.38h-.83Z"/>
    <path class="cls-1" d="M34.89,21.25v-2.21h2.16v2.21h-2.16ZM35.22,32.61v-9.49h1.49v9.49h-1.49Z"/>
    <path class="cls-1" d="M42.24,32.61l-3.76-9.49h1.58l2.86,7.34,2.86-7.34h1.58l-3.76,9.49h-1.37Z"/>
    <path class="cls-1" d="M51.56,32.75l-1.22-.38-.86-.5-1.01-1.46v-1.04l.25-1.22,1.33-1.33,1.78-.45h1.15l1.21.4.43.31v-1.37l-.2-.54-.76-.49-.88-.22h-1.28l-.78.25-.56.36-.34.34-1.03-1.06.5-.47.87-.56,1.15-.34h1.67l1.3.32,1.33.9.49,1.22v5.45l.7,1.01-1.21.86-.86-1.3-.41.47-1.66.83h-1.12ZM51.78,31.27h.58l1.35-.5.74-.77.18-.56v-.67l-.38-.4-.56-.29-.88-.25h-.81l-1.19.32-.7.7-.14.63v.49l.56.79.41.25.85.25Z"/>
    <path class="cls-1" d="M58.74,32.61v-13.57h1.49v13.57h-1.49Z"/>
  </g>
  <polygon class="cls-1" points="60.24 12.27 59.17 12.27 58.07 11.73 57.2 10.56 56.96 9.77 56.96 9.59 60.24 9.59 60.24 8.12 56.96 8.12 56.96 7.95 57.18 7.16 58.03 6.01 59.12 5.45 60.24 5.45 60.24 3.98 58.88 3.98 57.07 4.84 55.84 6.5 55.46 7.81 55.46 9.95 55.84 11.23 57.07 12.89 58.88 13.75 60.24 13.75 60.24 12.27"/>
</svg>