<?xml version="1.0" encoding="UTF-8"?>
<svg id="Ebene_1" data-name="Ebene 1" xmlns="http://www.w3.org/2000/svg" viewBox="0 0 480.78 16.63">
  <defs>
    <style>
      .cls-1 {
        fill: #fff;
        stroke-width: 0px;
      }
    </style>
  </defs>
  <path class="cls-1" d="M174.43,13.61V.81h7.6v1.48h-6.1v3.78h4.34v1.48h-4.34v6.07h-1.49Z"/>
  <path class="cls-1" d="M186.04,13.75l-1.8-.86-1.22-1.66-.38-1.28v-2.14l.38-1.31,1.22-1.66,1.8-.86h1.6l1.82.86,1.21,1.66.41,1.21v1.89h-6.95v.18l.23.79.86,1.17,1.1.54h1.08l1.22-.31.94-.59.79,1.19-1.17.77-1.66.41h-1.49ZM184.13,8.12h5.45v-.23l-.23-.68-.86-1.17-1.1-.58h-1.12l-1.08.56-.85,1.15-.22.79v.16Z"/>
  <path class="cls-1" d="M195.38,13.75l-1.53-.4-.85-.67-.41-.47,1.04-1.01.34.41.49.38,1.12.29h1.21l.76-.22.45-.32.29-.45v-.68l-.31-.52-.54-.38-2.59-.52-1.15-.61-.76-1.04v-1.6l.59-1.03.81-.63,1.12-.31h1.53l1.48.4,1.08.74-.81,1.21-.86-.59-1.01-.31h-1.21l-.68.2-.31.25-.25.43v.79l.36.49.5.25,2.75.54,1.03.68.7,1.15v1.53l-.68,1.04-.86.61-1.22.36h-1.6Z"/>
  <path class="cls-1" d="M205.06,13.75l-1.26-.47-.99-1.42v-6.03h-1.71v-1.48h1.71V1.04h1.49v3.31h2.48v1.48h-2.48v5.54l.45.65.65.25h.5l1.28-.32.38,1.42-1.67.38h-.83Z"/>
  <path class="cls-1" d="M209.09,2.25V.03h2.16v2.21h-2.16ZM209.42,13.61V4.12h1.49v9.49h-1.49Z"/>
  <path class="cls-1" d="M216.44,13.61l-3.76-9.49h1.58l2.86,7.35,2.86-7.35h1.58l-3.76,9.49h-1.37Z"/>
  <path class="cls-1" d="M225.76,13.75l-1.22-.38-.86-.5-1.01-1.46v-1.04l.25-1.22,1.33-1.33,1.78-.45h1.15l1.21.4.43.31v-1.37l-.2-.54-.76-.49-.88-.22h-1.28l-.77.25-.56.36-.34.34-1.03-1.06.5-.47.86-.56,1.15-.34h1.67l1.3.32,1.33.9.49,1.22v5.45l.7,1.01-1.21.86-.86-1.3-.41.47-1.66.83h-1.12ZM225.98,12.27h.58l1.35-.5.74-.77.18-.56v-.67l-.38-.4-.56-.29-.88-.25h-.81l-1.19.32-.7.7-.14.63v.49l.56.79.41.25.85.25Z"/>
  <path class="cls-1" d="M233.02,13.61V.03h1.49v13.57h-1.49Z"/>
  <path class="cls-1" d="M4.27,13.72l-1.93-.85-1.21-1.22-.79-1.6-.34-1.55v-2.65l.34-1.58.79-1.6,1.24-1.21,1.89-.83h1.98l1.87.74.81.63.7.83-1.06,1.01-.63-.7-.56-.45-1.35-.58h-1.51l-1.28.58-.86.86-.61,1.21-.27,1.21v2.41l.27,1.21.61,1.19.85.86,1.3.61h1.51l1.37-.58.56-.45.61-.7,1.06,1.01-.7.83-.81.63-1.87.74h-1.98Z"/>
  <path class="cls-1" d="M11.72,13.57V0h1.49v4.99l.43-.36,1.21-.68h1.66l1.51.43,1.1,1.48v7.72h-1.49v-7.15l-.45-.7-.97-.31h-1.15l-1.26.83-.58.85v6.48h-1.49Z"/>
  <path class="cls-1" d="M21.38,2.21V0h2.16v2.21h-2.16ZM21.71,13.57V4.09h1.49v9.49h-1.49Z"/>
  <path class="cls-1" d="M25.94,13.57V4.09h1.49v.94l.45-.4,1.19-.68h1.66l1.6.43,1.1,1.48v7.72h-1.49v-7.15l-.45-.7-1.06-.31h-1.15l-1.3.83-.54.77v6.55h-1.49Z"/>
  <path class="cls-1" d="M38.92,13.72l-1.8-.86-1.22-1.66-.38-1.28v-2.14l.38-1.31,1.22-1.66,1.8-.86h1.6l1.82.86,1.21,1.66.41,1.21v1.89h-6.95v.18l.23.79.86,1.17,1.1.54h1.08l1.22-.31.94-.59.79,1.19-1.17.77-1.66.41h-1.49ZM37.01,8.08h5.45v-.23l-.23-.68-.86-1.17-1.1-.58h-1.12l-1.08.56-.85,1.15-.22.79v.16Z"/>
  <path class="cls-1" d="M48.26,13.72l-1.53-.4-.85-.67-.41-.47,1.04-1.01.34.41.49.38,1.12.29h1.21l.76-.22.45-.32.29-.45v-.68l-.31-.52-.54-.38-2.59-.52-1.15-.61-.76-1.04v-1.6l.59-1.03.81-.63,1.12-.31h1.53l1.48.4,1.08.74-.81,1.21-.86-.59-1.01-.31h-1.21l-.68.2-.31.25-.25.43v.79l.36.49.5.25,2.75.54,1.03.68.7,1.15v1.53l-.68,1.04-.86.61-1.22.36h-1.6Z"/>
  <path class="cls-1" d="M57.74,13.72l-1.8-.86-1.22-1.66-.38-1.28v-2.14l.38-1.31,1.22-1.66,1.8-.86h1.6l1.82.86,1.21,1.66.41,1.21v1.89h-6.95v.18l.23.79.86,1.17,1.1.54h1.08l1.22-.31.94-.59.79,1.19-1.17.77-1.66.41h-1.49ZM55.83,8.08h5.45v-.23l-.23-.68-.86-1.17-1.1-.58h-1.12l-1.08.56-.85,1.15-.22.79v.16Z"/>
  <path class="cls-1" d="M408.85,13.61V.81h1.49v5.26h5.81V.81h1.49v12.8h-1.49v-6.07h-5.81v6.07h-1.49Z"/>
  <path class="cls-1" d="M423.06,13.75l-1.22-.38-.86-.5-1.01-1.46v-1.04l.25-1.22,1.33-1.33,1.78-.45h1.15l1.21.4.43.31v-1.37l-.2-.54-.76-.49-.88-.22h-1.28l-.77.25-.56.36-.34.34-1.03-1.06.5-.47.86-.56,1.15-.34h1.67l1.3.32,1.33.9.49,1.22v5.45l.7,1.01-1.21.86-.86-1.3-.41.47-1.66.83h-1.12ZM423.27,12.27h.58l1.35-.5.74-.77.18-.56v-.67l-.38-.4-.56-.29-.88-.25h-.81l-1.19.32-.7.7-.14.63v.49l.56.79.41.25.85.25Z"/>
  <path class="cls-1" d="M430.33,13.61V4.12h1.49v.94l.45-.4,1.19-.68h1.66l1.46.43.68.94.79-.68,1.26-.68h1.66l1.46.43,1.1,1.48v7.72h-1.49v-7.15l-.45-.7-.92-.31h-1.15l-1.26.83-.58.85v6.48h-1.49v-7.07l-.45-.74-.92-.34h-1.15l-1.3.83-.54.77v6.55h-1.49Z"/>
  <path class="cls-1" d="M449.23,13.75l-1.08-.4-.5-.32v.58h-1.49V.03h1.49v5.04l.4-.41,1.1-.68h1.62l1.87.86,1.22,1.66.38,1.28v2.14l-.38,1.31-1.22,1.66-1.8.86h-1.6ZM449.44,12.29h1.15l1.06-.58.86-1.15.22-.85v-1.75l-.22-.81-.86-1.17-1.13-.54h-1.19l-1.17.83-.52.77v4.09l.38.47.68.45.74.23Z"/>
  <path class="cls-1" d="M459.13,13.75l-1.64-.43-1.17-1.51v-7.69h1.49v7.15l.52.76,1.03.27h1.03l1.28-.85.56-.77v-6.55h1.49v9.49h-1.48v-.95l-.47.41-1.19.68h-1.46Z"/>
  <path class="cls-1" d="M466.4,13.61V4.12h1.49v1.1l.68-.67,1.22-.58h1.17l.9.25-.36,1.42-.72-.2h-.77l-.99.47-.74.83-.4.86v5.99h-1.49Z"/>
  <path class="cls-1" d="M476.05,16.63l-1.28-.34-.88-.58-.5-.49,1.04-1.06.45.45.45.31.86.23h1.28l.83-.31.77-.52.22-.54v-1.66l-.38.36-1.12.68h-1.62l-1.84-.72-1.26-1.66-.38-1.28v-1.71l.38-1.31,1.22-1.66,1.8-.86h1.6l1.08.4.5.32v-.58h1.49v9.83l-.45,1.31-1.37.92-1.33.45h-1.58ZM476.41,11.7h1.19l1.17-.83.52-.85v-3.44l-.38-.47-.68-.45-.74-.23h-1.15l-1.06.58-.86,1.15-.22.85v1.31l.22.77.83,1.13,1.17.47Z"/>
  <path class="cls-1" d="M124.38,13.57V.77h7.6v1.48h-6.1v3.78h4.34v1.48h-4.34v6.07h-1.49Z"/>
  <path class="cls-1" d="M133.62,2.21V0h2.16v2.21h-2.16ZM133.94,13.57V4.09h1.49v9.49h-1.49Z"/>
  <path class="cls-1" d="M138.15,13.57V0h1.49v13.57h-1.49Z"/>
  <polygon class="cls-1" points="152.7 3.94 151.34 3.94 150.08 4.63 149.29 5.31 148.61 4.37 147.15 3.94 145.49 3.94 144.31 4.63 143.86 5.02 143.86 4.09 142.36 4.09 142.36 13.57 143.86 13.57 143.86 7.02 144.4 6.25 145.69 5.42 146.84 5.42 147.76 5.76 148.21 6.5 148.21 13.57 149.71 13.57 149.71 7.09 150.28 6.25 151.54 5.42 152.69 5.42 152.7 5.42 152.7 3.94"/>
</svg>